#!OML:ASF E:\Steps\Project 1\Capture day 1\Session 2\Subject.ASF
:FULLY-SPECIFIED
:DEGREES
267
root 9.15499 15.5784 28.317 -146.399 3.80913 177.552
lowerback -12.0278 -1.21045 -4.02705
upperback -3.05887 -0.676625 -1.63594
thorax 3.57269 -0.198657 0.472181
lowerneck -2.83247 -2.53785 0.0229624
upperneck -12.162 -2.14236 4.94797
head -3.37348 -0.875704 1.63994
rclavicle 4.96962e-015 -3.65764e-014
rhumerus -23.681 21.9108 -81.3121
rradius 79.6369
rwrist -9.67463
rhand -10.2088 -53.3221
rfingers 7.12502
rthumb -164.217 97.3013
lclavicle 4.96962e-015 -3.65764e-014
lhumerus -18.935 -37.2162 73.8776
lradius 66.3998
lwrist -1.001
lhand -30.6976 -18.7592
lfingers 7.12502
lthumb -3.99109 11.1832
rfemur -42.4552 4.03283 17.9878
rtibia 52.275
rfoot -20.6971 -4.97214
rtoes -40.2749
lfemur -44.4528 -0.581096 -22.8056
ltibia 55.1994
lfoot -6.48793 -1.79989
ltoes -44.6323
268
root 9.1595 15.8913 28.056 -145.537 3.41995 177.33
lowerback -14.9936 -1.5308 -4.04572
upperback -3.56082 -0.811462 -1.55542
thorax 4.67193 -0.214652 0.514383
lowerneck -2.63475 -2.67916 1.80222
upperneck -11.2186 -2.73996 2.3411
head -3.124 -1.22071 0.484504
rclavicle -1.0138e-014 -2.78299e-015
rhumerus -24.8279 22.3846 -80.8683
rradius 81.4285
rwrist -10.6475
rhand -9.44721 -52.1701
rfingers 7.12502
rthumb -163.484 98.5128
lclavicle -1.0138e-014 -2.78299e-015
lhumerus -19.4621 -37.793 73.639
lradius 67.6589
lwrist -1.02879
lhand -31.0657 -18.7075
lfingers 7.12502
lthumb -4.34658 11.2279
rfemur -40.7775 2.93156 17.6444
rtibia 47.7556
rfoot -15.6873 -3.35982
rtoes -38.8761
lfemur -43.0027 -0.245526 -22.7689
ltibia 50.9053
lfoot -1.31765 -2.01571
ltoes -43.4515
269
root 9.16663 16.2416 27.7492 -146.069 3.39444 177.444
lowerback -16.9955 -1.56952 -3.97236
upperback -3.53348 -0.716425 -1.43346
thorax 5.78226 -0.161457 0.597255
lowerneck -3.18881 -2.32856 2.14028
upperneck -9.12252 -2.53428 1.73687
head -2.32942 -1.15801 0.206572
rclavicle -1.10325e-014 -1.15295e-014
rhumerus -25.8484 22.7736 -80.4704
rradius 82.7076
rwrist -11.4589
rhand -9.67438 -49.2502
rfingers 7.12502
rthumb -163.703 101.415
lclavicle -1.10325e-014 -1.15295e-014
lhumerus -19.9279 -38.2772 73.4784
lradius 68.7805
lwrist -0.65891
lhand -31.4751 -18.7019
lfingers 7.12502
lthumb -4.74187 11.2251
rfemur -36.9756 2.78283 17.4446
rtibia 42.2119
rfoot -10.2185 -2.09241
rtoes -39.5026
lfemur -39.2198 0.540014 -22.4718
ltibia 45.184
lfoot 4.67079 -1.75578
ltoes -43.8613
270
root 9.18049 16.6311 27.4631 -146.813 2.6259 177.165
lowerback -18.3616 -1.90204 -4.14721
upperback -3.45093 -1.02218 -1.23988
thorax 6.6268 -0.312886 0.814535
lowerneck -2.24396 -2.41255 1.4945
upperneck -8.61716 -2.6967 2.06023
head -2.31439 -1.26394 0.427081
rclavicle -1.31198e-014 6.75868e-015
rhumerus -26.8555 22.9762 -80.0591
rradius 83.7504
rwrist -12.1767
rhand -9.53086 -49.9055
rfingers 7.12502
rthumb -163.565 100.771
lclavicle -1.31198e-014 6.75868e-015
lhumerus -20.3302 -38.6198 73.4224
lradius 69.7168
lwrist -0.221384
lhand -31.5986 -19.1133
lfingers 7.12502
lthumb -4.86119 10.8109
rfemur -32.9067 2.47369 16.968
rtibia 36.228
rfoot -3.51416 -1.6056
rtoes -40.106
lfemur -35.5106 0.0715667 -21.9839
ltibia 39.3789
lfoot 11.3555 -0.706419
ltoes -43.6303
271
root 9.19046 17.0047 27.164 -146.909 2.55758 177.201
lowerback -20.5728 -1.99136 -4.09692
upperback -3.53237 -0.94264 -1.196
thorax 7.7228 -0.250153 0.825581
lowerneck -2.55715 -2.45952 1.76228
upperneck -6.68074 -2.94936 1.65349
head -1.63916 -1.42078 0.236277
rclavicle -9.74045e-015 1.78906e-014
rhumerus -28.2523 22.8599 -79.9099
rradius 84.7865
rwrist -12.9005
rhand -10.464 -49.0148
rfingers 7.12502
rthumb -164.463 101.589
lclavicle -9.74045e-015 1.78906e-014
lhumerus -20.9927 -39.0575 73.3041
lradius 70.6954
lwrist 0.318405
lhand -31.1375 -19.6143
lfingers 7.12502
lthumb -4.41591 10.3197
rfemur -29.8348 3.23007 16.4225
rtibia 30.364
rfoot 4.23391 -1.42102
rtoes -39.5374
lfemur -32.3541 -0.274285 -21.3749
ltibia 33.1966
lfoot 18.4459 1.86412
ltoes -42.0023
272
root 9.19065 17.3902 26.8784 -147.062 2.25075 177.105
lowerback -22.1193 -2.08172 -3.96344
upperback -3.73656 -0.90961 -1.2538
thorax 8.31908 -0.19396 0.681271
lowerneck -2.74943 -2.47973 2.37273
upperneck -4.19212 -3.20057 0.512569
head -0.855877 -1.57674 -0.232663
rclavicle -3.67752e-015 3.33958e-014
rhumerus -29.6801 22.4736 -79.8661
rradius 85.4243
rwrist -13.6983
rhand -10.4012 -50.1698
rfingers 7.12502
rthumb -164.403 100.439
lclavicle -3.67752e-015 3.33958e-014
lhumerus -21.7174 -39.5941 73.205
lradius 71.5807
lwrist 1.17024
lhand -30.5918 -20.5541
lfingers 7.12502
lthumb -3.88893 9.39021
rfemur -26.8643 4.26448 15.7432
rtibia 24.6629
rfoot 12.2172 -2.78453
rtoes -36.6243
lfemur -29.3862 -1.64988 -20.7454
ltibia 27.2401
lfoot 25.2668 5.73403
ltoes -41.4627
273
root 9.18279 17.7698 26.6081 -147.033 2.03084 177.144
lowerback -23.8951 -2.07486 -3.53749
upperback -3.8354 -0.808704 -1.3709
thorax 9.1358 -0.100636 0.321596
lowerneck -2.38033 -2.76218 3.13994
upperneck -2.93472 -3.6825 -0.858733
head -0.580162 -1.83647 -0.783506
rclavicle 5.36719e-015 1.90833e-014
rhumerus -30.8737 22.4233 -79.7514
rradius 86.0237
rwrist -14.6505
rhand -9.34892 -48.0755
rfingers 7.12502
rthumb -163.389 102.615
lclavicle 5.36719e-015 1.90833e-014
lhumerus -22.1147 -40.0044 72.8681
lradius 72.3326
lwrist 2.32277
lhand -30.231 -21.969
lfingers 7.12502
lthumb -3.54058 7.98131
rfemur -24.4898 5.70123 15.1433
rtibia 19.5292
rfoot 18.9406 -5.15495
rtoes -34.7812
lfemur -26.9372 -3.82247 -19.918
ltibia 21.7524
lfoot 30.9869 10.8913
ltoes -42.602
274
root 9.17482 18.1367 26.3642 -146.567 1.88384 177.211
lowerback -25.0305 -2.15667 -3.23757
upperback -4.49576 -0.790513 -1.31293
thorax 8.98805 -0.00182108 0.221654
lowerneck -2.20397 -3.22808 3.16366
upperneck -1.83295 -4.33986 -1.31086
head -0.296648 -2.17169 -0.934479
rclavicle 9.54166e-015 2.14687e-014
rhumerus -32.8933 23.0233 -79.668
rradius 86.8589
rwrist -15.2827
rhand -10.3534 -49.6751
rfingers 7.12502
rthumb -164.357 100.937
lclavicle 9.54166e-015 2.14687e-014
lhumerus -23.5688 -40.3966 73.3846
lradius 73.1183
lwrist 2.80139
lhand -30.0807 -22.4888
lfingers 7.12502
lthumb -3.39539 7.46393
rfemur -23.2641 6.99842 14.6013
rtibia 15.4693
rfoot 25.0909 -7.85683
rtoes -30.8225
lfemur -25.438 -6.60713 -18.9627
ltibia 17.0964
lfoot 35.1015 17.2807
ltoes -35.5789
275
root 9.16357 18.4965 26.1368 -146.2 1.75927 177.229
lowerback -26.1109 -2.19451 -2.86411
upperback -4.87095 -0.763709 -1.37494
thorax 9.11722 0.0803463 -0.0551144
lowerneck -2.29489 -3.72593 3.31872
upperneck -0.910508 -5.02684 -1.83291
head -0.03293 -2.51907 -1.13737
rclavicle -1.12313e-014 -2.94201e-014
rhumerus -34.4745 23.3544 -79.774
rradius 87.4858
rwrist -15.2192
rhand -9.23963 -49.9976
rfingers 7.12502
rthumb -163.284 100.702
lclavicle -1.12313e-014 -2.94201e-014
lhumerus -24.4963 -40.5828 73.3515
lradius 73.9822
lwrist 3.36364
lhand -29.6751 -22.6864
lfingers 7.12502
lthumb -3.00369 7.27222
rfemur -22.5328 7.74899 14.2046
rtibia 12.7128
rfoot 27.7716 -10.6677
rtoes -33.2551
lfemur -24.7998 -8.80162 -18.3804
ltibia 14.6205
lfoot 36.9226 21.2281
ltoes -37.1508
276
root 9.15095 18.8497 25.9291 -146.001 1.41411 177.079
lowerback -26.8793 -2.3074 -2.56852
upperback -5.07247 -0.865545 -1.46324
thorax 9.27773 0.080769 -0.360797
lowerneck -2.1584 -3.49064 3.84483
upperneck -2.07827 -4.70441 -1.96896
head -0.422664 -2.35714 -1.25272
rclavicle -2.28602e-015 -1.39149e-014
rhumerus -35.8434 23.4925 -79.9426
rradius 88.0062
rwrist -14.7138
rhand -8.95045 -50.5964
rfingers 7.12502
rthumb -163.006 100.127
lclavicle -2.28602e-015 -1.39149e-014
lhumerus -25.2126 -40.5817 73.1849
lradius 74.8219
lwrist 3.62746
lhand -29.5705 -23.0033
lfingers 7.12502
lthumb -2.90269 6.95667
rfemur -21.9181 7.67851 14.0422
rtibia 11.0117
rfoot 29.9296 -13.0639
rtoes -31.3637
lfemur -25.0909 -9.26304 -18.5059
ltibia 14.4859
lfoot 36.4244 19.8372
ltoes -44.5278
277
root 9.14497 19.19 25.7412 -145.742 0.921226 176.93
lowerback -27.4083 -0.896472 -3.24518
upperback -5.25119 -1.4264 -1.58698
thorax 9.31058 -1.3215 -0.491857
lowerneck -0.0241404 -2.84921 3.47172
upperneck -5.42821 -3.62871 0.000310935
head -1.7505 -1.82673 -0.527082
rclavicle 1.93815e-014 -2.18663e-014
rhumerus -37.2405 23.5485 -80.0624
rradius 88.3853
rwrist -14.0874
rhand -8.78742 -50.7621
rfingers 7.12502
rthumb -162.849 99.9749
lclavicle 1.93815e-014 -2.18663e-014
lhumerus -25.9224 -40.4913 73.2497
lradius 75.5726
lwrist 3.80457
lhand -29.2248 -23.3513
lfingers 7.12502
lthumb -2.56878 6.61293
rfemur -22.429 6.13402 14.3581
rtibia 11.6925
rfoot 31.1098 -13.1593
rtoes -30.1821
lfemur -25.9603 -8.85524 -18.828
ltibia 15.3765
lfoot 36.4003 17.8201
ltoes -45.6392
